<?xml version="1.0" standalone="no"?><!DOCTYPE svg PUBLIC "-//W3C//DTD SVG 1.1//EN" "http://www.w3.org/Graphics/SVG/1.1/DTD/svg11.dtd"><svg t="1525674014180" class="icon" style="" viewBox="0 0 1024 1024" version="1.1" xmlns="http://www.w3.org/2000/svg" p-id="12978" xmlns:xlink="http://www.w3.org/1999/xlink" width="64" height="64"><defs><style type="text/css"></style></defs><path d="M512.512 944.64c-20.992 0-43.008-9.216-65.024-27.136-0.512-0.512-1.536-1.024-2.048-2.048l-321.536-322.048c-48.64-48.64-75.264-113.152-75.264-182.272 0-68.608 26.624-133.632 75.264-181.76 100.352-100.352 263.68-100.352 364.032 0l23.552 23.552 24.064-24.064c50.176-50.176 119.296-77.312 190.464-74.752 16.384 0.512 28.672 14.336 28.16 30.208s-13.824 29.696-30.208 28.16c-54.784-1.536-108.544 19.456-147.456 57.856l-43.008 43.52c-5.12 6.144-12.8 10.24-20.992 10.24-8.192 0.512-15.872-2.56-22.016-8.192l-44.544-44.544c-77.312-77.312-203.776-77.312-281.088 0C127.488 308.224 107.008 358.4 107.008 411.648c0 53.248 20.48 102.912 57.856 140.8l320.512 321.024c19.968 16.384 30.208 18.432 49.664 0.512l322.048-322.048c47.104-47.616 67.584-115.2 54.272-181.248-3.072-15.872 7.168-31.232 23.04-34.816 15.872-3.072 31.232 7.168 34.816 23.04 17.408 84.992-8.704 172.544-70.144 233.984l-322.56 322.56C555.52 934.912 534.528 944.64 512.512 944.64z" p-id="12979"></path><path d="M839.168 347.136c-7.68 0-14.848-3.072-20.48-8.704l-58.368-58.368c-11.264-11.264-11.264-30.208 0-41.472s30.208-11.264 41.472 0L860.16 297.472c11.264 11.264 11.264 30.208 0 41.472C854.016 344.576 846.848 347.136 839.168 347.136z" p-id="12980"></path><path d="M839.168 347.136c-7.68 0-14.848-3.072-20.48-8.704-11.264-11.264-11.264-30.208 0-41.472l117.248-117.248c11.264-11.264 30.208-11.264 41.472 0s11.264 30.208 0 41.472L860.16 338.944C854.016 344.576 846.848 347.136 839.168 347.136z" p-id="12981"></path><path d="M509.952 724.992c-40.448 0-73.216-31.232-73.216-69.12l0-19.968c0-16.384 13.312-29.184 29.184-29.184s29.184 13.312 29.184 29.184l0 19.968c0 5.632 6.656 10.752 14.848 10.752 7.68 0 14.848-5.12 14.848-10.752l0-20.48c0-16.384 13.312-29.184 29.184-29.184s29.184 13.312 29.184 29.184l0 20.48C583.168 693.76 550.4 724.992 509.952 724.992z" p-id="12982"></path></svg>